<?xml version="1.0" encoding="UTF-8"?>
<svg width="270px" height="44px" viewBox="0 0 270 44" version="1.1" xmlns="http://www.w3.org/2000/svg" xmlns:xlink="http://www.w3.org/1999/xlink" xmlns:sketch="http://www.bohemiancoding.com/sketch/ns">
    <!-- Generator: Sketch 3.0.2 (7799) - http://www.bohemiancoding.com/sketch -->
    <title>BGW-P</title>
    <description>Created with Sketch.</description>
    <defs></defs>
    <g id="Page-1" stroke="none" stroke-width="1" fill="none" fill-rule="evenodd" sketch:type="MSPage">
        <g id="BGW-P" sketch:type="MSLayerGroup">
            <g id="Layer_2" sketch:type="MSShapeGroup">
                <g id="Layer_1-2">
                    <path d="M186.509483,36.2974118 L171.336207,36.2974118 L171.336207,32.4771765 L186.509483,32.4771765 C187.505795,32.468738 188.311396,31.6625055 188.319828,30.6654118 L188.319828,9.28141176 L192.137069,9.28141176 L192.137069,30.6628235 C192.132795,33.7743768 189.613425,36.2957229 186.50431,36.3 L186.509483,36.2974118 Z" id="Shape" fill="#333333"></path>
                    <path d="M20.8060345,14.916 L20.8060345,30.6602353 C20.813649,32.1576306 20.2226448,33.5959004 19.1646426,34.6547325 C18.1066403,35.7135646 16.6694977,36.3050322 15.1732759,36.2974118 L0,36.2974118 L0,32.4771765 L15.1732759,32.4771765 C16.1690096,32.4673579 16.9738098,31.6619265 16.9836207,30.6654118 L16.9836207,14.916 C16.9738098,13.9194853 16.1690096,13.1140539 15.1732759,13.1042353 L0,13.1042353 L0,9.28141176 L15.1732759,9.28141176 C16.6647886,9.27170978 18.0960595,9.86970835 19.137931,10.9378824 C20.2208741,11.9752219 20.8249761,13.4158934 20.8060345,14.916 L20.8060345,14.916 Z" id="Shape" fill="#2CA5E0"></path>
                    <path d="M136.194828,9.28141176 L136.194828,30.6602353 C136.194904,32.1652256 135.593651,33.6077608 134.524966,34.6665886 C133.456281,35.7254164 132.008907,36.3126137 130.505172,36.2974118 L114.310345,36.2974118 C112.935795,36.3182194 111.605635,35.8105649 110.593966,34.8790588 C109.562088,35.8163655 108.211389,36.3237378 106.818103,36.2974118 L45.5172414,36.2974118 C42.411653,36.2846476 39.8972369,33.7682595 39.8844828,30.6602353 L39.8844828,20.6774118 L43.7068966,20.6774118 L43.7068966,30.6628235 C43.7208008,31.6576127 44.5232318,32.4606731 45.5172414,32.4745882 L79.0137931,32.4745882 L71.8965517,24.7021176 L71.8965517,20.8818824 L82.5,9.28141176 L87.525,9.28141176 L75.2844828,22.792 L79.2025862,27.1298824 L83.4310345,31.8068235 L83.5577586,31.9465882 C83.8903185,32.2938217 84.3522107,32.4869746 84.8327586,32.4797647 L106.815517,32.4797647 C107.300121,32.4805552 107.765217,32.2887851 108.108621,31.9465882 C108.471733,31.6154075 108.675189,31.1440749 108.667241,30.6524706 L108.667241,9.28141176 L112.5,9.28141176 L112.5,30.6628235 C112.512547,31.6581859 113.315762,32.4620314 114.310345,32.4745882 L130.505172,32.4745882 C130.987406,32.4786737 131.451888,32.2927351 131.798276,31.9569412 C132.16028,31.6249702 132.36351,31.154162 132.356897,30.6628235 L132.356897,9.28141176 L136.194828,9.28141176 Z" id="Shape" fill="#333333"></path>
                    <path d="M140.012069,36.2974118 L140.012069,32.4771765 L161.842241,32.4771765 C162.837975,32.4673579 163.642775,31.6619265 163.652586,30.6654118 L163.652586,24.7124706 L140.012069,24.7124706 L140.012069,14.916 C140.017762,11.8050365 142.536302,9.28452128 145.644828,9.27882353 L167.521552,9.27882353 L167.521552,30.6602353 C167.519541,32.1645799 166.917622,33.6058941 165.849395,34.6642685 C164.781168,35.722643 163.335007,36.3105184 161.831897,36.2974118 L140.012069,36.2974118 Z M145.644828,13.0990588 C144.648515,13.1074973 143.842915,13.9137298 143.834483,14.9108235 L143.834483,20.8637647 L163.655172,20.8637647 L163.655172,13.0990588 L145.644828,13.0990588 Z" id="Shape" fill="#333333"></path>
                    <rect id="Rectangle-path" fill="#2CA5E0" x="24.5689655" y="0.517647059" width="3.81724138" height="35.8677647"></rect>
                    <rect id="Rectangle-path" fill="#333333" x="120.517241" y="40.1176471" width="3.81724138" height="3.82023529"></rect>
                    <rect id="Rectangle-path" fill="#333333" x="93.8793103" y="40.1176471" width="11.4491379" height="3.82023529"></rect>
                    <path d="M239.932759,0 L224.609483,8.8 L224.557759,26.4828235 L239.82931,35.3656471 L255.152586,26.5656471 L255.20431,8.88282353 L239.932759,0 Z M239.322414,33.8748235 L225.581897,25.8823529 L225.628448,9.98023529 L239.366379,17.9701176 L239.322414,33.8748235 Z M226.148276,9.09505882 L239.927586,1.18282353 L253.662931,9.17529412 L239.881034,17.0823529 L226.148276,9.09505882 Z M254.131034,25.9677647 L240.346552,33.88 L240.393103,17.9752941 L254.177586,10.0682353 L254.131034,25.9677647 Z" id="Shape" fill="#FFFFFF"></path>
                    <path d="M239.366379,17.9701176 L239.319828,33.8748235 L225.581897,25.8823529 L225.628448,9.98023529 L239.366379,17.9701176 L239.366379,17.9701176 Z" id="Shape" fill="#2CA5E0"></path>
                    <path d="M254.175,10.0656471 L254.128448,25.9651765 L240.343966,33.8774118 L240.390517,17.9727059 L254.175,10.0656471 L254.175,10.0656471 Z" id="Shape" fill="#1887AA"></path>
                    <path d="M253.662931,9.17529412 L239.881034,17.0875294 L226.148276,9.09505882 L239.927586,1.18282353 L253.662931,9.17529412 L253.662931,9.17529412 Z" id="Shape" fill="#45B8E5"></path>
                    <path d="M254.692241,8.58776471 L239.368966,17.3877647 L239.317241,35.0705882 L254.588793,43.9534118 L269.912069,35.1534118 L269.963793,17.4705882 L254.692241,8.58776471 Z M254.081897,42.4625882 L240.343966,34.4701176 L240.390517,18.568 L254.128448,26.5578824 L254.081897,42.4625882 Z M240.907759,17.6802353 L254.689655,9.768 L268.425,17.7604706 L254.643103,25.6727059 L240.907759,17.6802353 Z M268.890517,34.5529412 L255.106034,42.4651765 L255.152586,26.5604706 L268.937069,18.6534118 L268.890517,34.5529412 Z" id="Shape" fill="#FFFFFF"></path>
                    <path d="M254.128448,26.5578824 L254.081897,42.4625882 L240.343966,34.4701176 L240.390517,18.568 L254.128448,26.5578824 L254.128448,26.5578824 Z" id="Shape" fill="#2CA5E0"></path>
                    <path d="M268.937069,18.6508235 L268.890517,34.5529412 L255.106034,42.4651765 L255.152586,26.5604706 L268.937069,18.6508235 L268.937069,18.6508235 Z" id="Shape" fill="#1887AA"></path>
                    <path d="M268.422414,17.7630588 L254.643103,25.6727059 L240.907759,17.6802353 L254.689655,9.768 L268.422414,17.7630588 L268.422414,17.7630588 Z" id="Shape" fill="#45B8E5"></path>
                    <path d="M225.121552,8.49976471 L209.798276,17.2997647 L209.746552,34.9825882 L225.018103,43.8654118 L240.341379,35.0654118 L240.393103,17.3825882 L225.121552,8.49976471 Z M224.511207,42.3745882 L210.775862,34.3821176 L210.822414,18.48 L224.560345,26.4698824 L224.511207,42.3745882 Z M211.337069,17.6 L225.118966,9.68776471 L238.85431,17.6802353 L225.072414,25.5872941 L211.337069,17.6 Z M239.319828,34.4727059 L225.535345,42.3849412 L225.581897,26.4802353 L239.366379,18.5731765 L239.319828,34.4727059 Z" id="Shape" fill="#FFFFFF"></path>
                    <path d="M224.555172,26.4698824 L224.511207,42.3745882 L210.773276,34.3821176 L210.819828,18.4825882 L224.555172,26.4698824 L224.555172,26.4698824 Z" id="Shape" fill="#2CA5E0"></path>
                    <path d="M239.366379,18.5654118 L239.319828,34.4649412 L225.535345,42.3771765 L225.581897,26.4724706 L239.366379,18.5654118 L239.366379,18.5654118 Z" id="Shape" fill="#1887AA"></path>
                    <path d="M238.851724,17.6750588 L225.072414,25.5872941 L211.337069,17.5948235 L225.118966,9.68258824 L238.851724,17.6750588 L238.851724,17.6750588 Z" id="Shape" fill="#45B8E5"></path>
                </g>
            </g>
        </g>
    </g>
</svg>