<?xml version="1.0" encoding="UTF-8"?>
<svg width="1044px" height="170px" viewBox="0 0 1044 170" version="1.1" xmlns="http://www.w3.org/2000/svg" xmlns:xlink="http://www.w3.org/1999/xlink" xmlns:sketch="http://www.bohemiancoding.com/sketch/ns">
    <!-- Generator: Sketch 3.0.2 (7799) - http://www.bohemiancoding.com/sketch -->
    <title>BGB-P</title>
    <description>Created with Sketch.</description>
    <defs></defs>
    <g id="Page-1" stroke="none" stroke-width="1" fill="none" fill-rule="evenodd" sketch:type="MSPage">
        <g id="BGB-P" sketch:type="MSLayerGroup">
            <g id="Layer_2" sketch:type="MSShapeGroup">
                <g id="Layer_1-2">
                    <path d="M721.17,140.24 L662.5,140.24 L662.5,125.48 L721.17,125.48 C725.022408,125.447397 728.137397,122.332408 728.17,118.48 L728.17,35.86 L742.93,35.86 L742.93,118.47 C742.913475,130.49191 733.17191,140.233475 721.15,140.25 L721.17,140.24 Z" id="Shape" fill="#FFFFFF"></path>
                    <path d="M526.61,35.86 L526.61,118.46 C526.612996,124.275568 524.289009,129.850578 520.156169,133.94209 C516.023328,138.033602 510.425244,140.301442 504.61,140.24 L442,140.24 C436.681817,140.321941 431.534856,138.360512 427.62,134.76 C423.63115,138.383173 418.407722,140.343748 413.02,140.24 L176,140.24 C163.991095,140.196093 154.268392,130.468924 154.23,118.46 L154.23,79.89 L169,79.89 L169,118.47 C169.064177,122.309096 172.160904,125.405823 176,125.47 L305.51,125.47 L278,95.44 L278,80.68 L319,35.86 L338.44,35.86 L291.11,88.06 L306.25,104.82 L322.6,122.89 L323.09,123.43 C324.379676,124.772113 326.168889,125.518222 328.03,125.49 L413.03,125.49 C414.9038,125.493054 416.702174,124.752124 418.03,123.43 C419.434034,122.150438 420.220731,120.32938 420.19,118.43 L420.19,35.86 L435,35.86 L435,118.47 C435.037935,122.32017 438.14983,125.432065 442,125.47 L504.62,125.47 C506.484635,125.485785 508.280633,124.767386 509.62,123.47 C511.019749,122.187385 511.805571,120.368353 511.78,118.47 L511.78,35.86 L526.61,35.86 Z" id="Shape" fill="#FFFFFF"></path>
                    <path d="M80.45,57.63 L80.45,118.46 C80.4794428,124.245391 78.1942267,129.802342 74.1032846,133.893285 C70.0123424,137.984227 64.4553909,140.269443 58.67,140.24 L0,140.24 L0,125.48 L58.67,125.48 C62.5201704,125.442065 65.6320645,122.33017 65.67,118.48 L65.67,57.63 C65.6320645,53.7798296 62.5201704,50.6679355 58.67,50.63 L0,50.63 L0,35.86 L58.67,35.86 C64.4371827,35.8225151 69.9714301,38.1329641 74,42.26 C78.1873797,46.2679027 80.5232411,51.8341335 80.45,57.63 L80.45,57.63 Z" id="Shape" fill="#FFFFFF"></path>
                    <path d="M541.38,140.24 L541.38,125.48 L625.79,125.48 C629.64017,125.442065 632.752065,122.33017 632.79,118.48 L632.79,95.48 L541.38,95.48 L541.38,57.63 C541.402014,45.6103685 551.140368,35.872014 563.16,35.85 L647.75,35.85 L647.75,118.46 C647.742226,124.272241 645.414806,129.840954 641.284327,133.930128 C637.153848,138.019303 631.562025,140.290639 625.75,140.24 L541.38,140.24 Z M563.16,50.61 C559.307592,50.6426032 556.192603,53.7575923 556.16,57.61 L556.16,80.61 L632.8,80.61 L632.8,50.61 L563.16,50.61 Z" id="Shape" fill="#FFFFFF"></path>
                    <rect id="Rectangle-path" fill="#FFFFFF" x="95" y="2" width="14.76" height="138.58"></rect>
                    <rect id="Rectangle-path" fill="#FFFFFF" x="466" y="155" width="14.76" height="14.76"></rect>
                    <rect id="Rectangle-path" fill="#FFFFFF" x="363" y="155" width="44.27" height="14.76"></rect>
                    <path d="M927.74,0 L868.49,34 L868.29,102.32 L927.34,136.64 L986.59,102.64 L986.79,34.32 L927.74,0 Z M925.38,130.88 L872.25,100 L872.43,38.56 L925.55,69.43 L925.38,130.88 Z M874.44,35.14 L927.72,4.57 L980.83,35.45 L927.54,66 L874.44,35.14 Z M982.64,100.33 L929.34,130.9 L929.52,69.45 L982.82,38.9 L982.64,100.33 Z" id="Shape" fill="#FFFFFF"></path>
                    <path d="M925.55,69.43 L925.37,130.88 L872.25,100 L872.43,38.56 L925.55,69.43 L925.55,69.43 Z" id="Shape" fill="#2CA5E0"></path>
                    <path d="M982.81,38.89 L982.63,100.32 L929.33,130.89 L929.51,69.44 L982.81,38.89 L982.81,38.89 Z" id="Shape" fill="#1887AA"></path>
                    <path d="M980.83,35.45 L927.54,66.02 L874.44,35.14 L927.72,4.57 L980.83,35.45 L980.83,35.45 Z" id="Shape" fill="#45B8E5"></path>
                    <path d="M984.81,33.18 L925.56,67.18 L925.36,135.5 L984.41,169.82 L1043.66,135.82 L1043.86,67.5 L984.81,33.18 Z M982.45,164.06 L929.33,133.18 L929.51,71.74 L982.63,102.61 L982.45,164.06 Z M931.51,68.31 L984.8,37.74 L1037.91,68.62 L984.62,99.19 L931.51,68.31 Z M1039.71,133.5 L986.41,164.07 L986.59,102.62 L1039.89,72.07 L1039.71,133.5 Z" id="Shape" fill="#FFFFFF"></path>
                    <path d="M982.63,102.61 L982.45,164.06 L929.33,133.18 L929.51,71.74 L982.63,102.61 L982.63,102.61 Z" id="Shape" fill="#2CA5E0"></path>
                    <path d="M1039.89,72.06 L1039.71,133.5 L986.41,164.07 L986.59,102.62 L1039.89,72.06 L1039.89,72.06 Z" id="Shape" fill="#1887AA"></path>
                    <path d="M1037.9,68.63 L984.62,99.19 L931.51,68.31 L984.8,37.74 L1037.9,68.63 L1037.9,68.63 Z" id="Shape" fill="#45B8E5"></path>
                    <path d="M870.47,32.84 L811.22,66.84 L811.02,135.16 L870.07,169.48 L929.32,135.48 L929.52,67.16 L870.47,32.84 Z M868.11,163.72 L815,132.84 L815.18,71.4 L868.3,102.27 L868.11,163.72 Z M817.17,68 L870.46,37.43 L923.57,68.31 L870.28,98.86 L817.17,68 Z M925.37,133.19 L872.07,163.76 L872.25,102.31 L925.55,71.76 L925.37,133.19 Z" id="Shape" fill="#FFFFFF"></path>
                    <path d="M868.28,102.27 L868.11,163.72 L814.99,132.84 L815.17,71.41 L868.28,102.27 L868.28,102.27 Z" id="Shape" fill="#2CA5E0"></path>
                    <path d="M925.55,71.73 L925.37,133.16 L872.07,163.73 L872.25,102.28 L925.55,71.73 L925.55,71.73 Z" id="Shape" fill="#1887AA"></path>
                    <path d="M923.56,68.29 L870.28,98.86 L817.17,67.98 L870.46,37.41 L923.56,68.29 L923.56,68.29 Z" id="Shape" fill="#45B8E5"></path>
                </g>
            </g>
        </g>
    </g>
</svg>