<?xml version="1.0" encoding="UTF-8"?>
<svg width="1044px" height="170px" viewBox="0 0 1044 170" version="1.1" xmlns="http://www.w3.org/2000/svg" xmlns:xlink="http://www.w3.org/1999/xlink" xmlns:sketch="http://www.bohemiancoding.com/sketch/ns">
    <!-- Generator: Sketch 3.0.2 (7799) - http://www.bohemiancoding.com/sketch -->
    <title>Layer_2</title>
    <description>Created with Sketch.</description>
    <defs></defs>
    <g id="Page-1" stroke="none" stroke-width="1" fill="none" fill-rule="evenodd" sketch:type="MSPage">
        <g id="W-P" sketch:type="MSLayerGroup">
            <g id="Layer_2" sketch:type="MSShapeGroup">
                <g id="Layer_1-2">
                    <path d="M721.17,140.24 L662.5,140.24 L662.5,125.48 L721.17,125.48 C725.022408,125.447397 728.137397,122.332408 728.17,118.48 L728.17,35.86 L742.93,35.86 L742.93,118.47 C742.913475,130.49191 733.17191,140.233475 721.15,140.25 L721.17,140.24 Z" id="Shape" fill="#FFFFFF"></path>
                    <path d="M80.45,57.63 L80.45,118.46 C80.4794428,124.245391 78.1942267,129.802342 74.1032846,133.893285 C70.0123424,137.984227 64.4553909,140.269443 58.67,140.24 L0,140.24 L0,125.48 L58.67,125.48 C62.5201704,125.442065 65.6320645,122.33017 65.67,118.48 L65.67,57.63 C65.6320645,53.7798296 62.5201704,50.6679355 58.67,50.63 L0,50.63 L0,35.86 L58.67,35.86 C64.4371827,35.8225151 69.9714301,38.1329641 74,42.26 C78.1873797,46.2679027 80.5232411,51.8341335 80.45,57.63 L80.45,57.63 Z" id="Shape" fill="#FFFFFF"></path>
                    <path d="M526.61,35.86 L526.61,118.46 C526.612866,124.266819 524.295731,129.834137 520.173758,133.924185 C516.051786,138.014233 510.466621,140.288013 504.66,140.24 L442,140.24 C436.681817,140.321941 431.534856,138.360512 427.62,134.76 C423.63115,138.383173 418.407722,140.343748 413.02,140.24 L176,140.24 C163.991095,140.196093 154.268392,130.468924 154.23,118.46 L154.23,79.89 L169,79.89 L169,118.47 C169.064177,122.309096 172.160904,125.405823 176,125.47 L305.51,125.47 L278,95.44 L278,80.68 L319,35.86 L338.44,35.86 L291.11,88.06 L306.25,104.82 L322.6,122.89 L323.09,123.43 C324.379676,124.772113 326.168889,125.518222 328.03,125.49 L413.03,125.49 C414.9038,125.493054 416.702174,124.752124 418.03,123.43 C419.434034,122.150438 420.220731,120.32938 420.19,118.43 L420.19,35.86 L435,35.86 L435,118.47 C435.037935,122.32017 438.14983,125.432065 442,125.47 L504.62,125.47 C506.484635,125.485785 508.280633,124.767386 509.62,123.47 C511.019749,122.187385 511.805571,120.368353 511.78,118.47 L511.78,35.86 L526.61,35.86 Z" id="Shape" fill="#FFFFFF"></path>
                    <path d="M541.38,140.24 L541.38,125.48 L625.79,125.48 C629.64017,125.442065 632.752065,122.33017 632.79,118.48 L632.79,95.48 L541.38,95.48 L541.38,57.63 C541.402014,45.6103685 551.140368,35.872014 563.16,35.85 L647.75,35.85 L647.75,118.46 C647.742226,124.272241 645.414806,129.840954 641.284327,133.930128 C637.153848,138.019303 631.562025,140.290639 625.75,140.24 L541.38,140.24 Z M563.16,50.61 C559.307592,50.6426032 556.192603,53.7575923 556.16,57.61 L556.16,80.61 L632.8,80.61 L632.8,50.61 L563.16,50.61 Z" id="Shape" fill="#FFFFFF"></path>
                    <rect id="Rectangle-path" fill="#FFFFFF" x="95" y="2" width="14.76" height="138.58"></rect>
                    <rect id="Rectangle-path" fill="#FFFFFF" x="466" y="155" width="14.76" height="14.76"></rect>
                    <rect id="Rectangle-path" fill="#FFFFFF" x="363" y="155" width="44.27" height="14.76"></rect>
                    <path d="M872.25,100 L872.25,97.72 L870.25,98.86 L868.25,97.71 L868.25,102.29 L872.25,104.59 L872.25,102.28 L874.25,101.15 L872.25,100 Z M984.81,33.18 L927.73,0 L868.48,34 L868.48,38.57 L870.48,37.43 L872.48,38.58 L925.6,69.45 L925.6,71.75 L925.43,130.9 L925.43,133.18 L923.43,134.32 L925.43,135.48 L927.43,136.62 L929.43,135.48 L931.43,134.35 L929.43,133.2 L929.43,130.91 L929.6,71.76 L929.6,69.46 L959.27,52.46 L965.99,48.61 L984.88,37.77 L986.88,38.92 L986.88,34.32 L984.81,33.18 Z M927.55,66 L927.55,66 L891.18,44.88 L881.18,39.05 L874.46,35.14 L927.72,4.57 L980.83,35.45 L943.78,56.71 L927.55,66 Z M984.61,99.18 L982.61,98.03 L982.61,100.31 L980.61,101.45 L982.61,102.6 L982.61,104.89 L986.61,102.62 L986.61,98 L984.61,99.18 Z" id="Shape" fill="#FFFFFF"></path>
                    <path d="M925.55,69.43 L925.54,71.73 L874.23,101.15 L872.25,100 L872.26,97.72 L923.56,68.29 L872.43,38.56 L925.55,69.43 L925.55,69.43 Z" id="Shape" fill="#2CA5E0"></path>
                    <path d="M982.64,98.04 L982.63,100.32 L980.64,101.46 L929.51,71.74 L929.33,130.89 L929.5,71.74 L929.51,69.44 L959.18,52.43 L931.51,68.31 L982.64,98.04 L982.64,98.04 Z" id="Shape" fill="#1887AA"></path>
                    <path d="M927.55,66.01 L927.54,66.02 L891.18,44.88 L927.54,66.01 L927.55,66.01 L927.55,66.01 Z" id="Shape" fill="#45B8E5"></path>
                    <path d="M986.78,34.32 L984.78,33.18 L943.78,56.71 L927.55,66 L925.55,67.13 L925.55,71.71 L925.38,130.86 L925.38,135.44 L927.38,136.58 L984.46,169.75 L1043.71,135.75 L1043.91,67.43 L986.78,34.32 Z M965.9,48.58 L984.79,37.74 L986.79,38.89 L1037.92,68.63 L986.59,98 L984.59,99.14 L982.59,97.99 L931.51,68.31 L959.18,52.43 L965.9,48.58 Z M982.44,164.06 L931.29,134.33 L929.29,133.18 L929.29,130.89 L929.46,71.74 L980.59,101.46 L982.59,102.61 L982.59,104.9 L982.44,164.06 Z M1039.7,133.5 L986.4,164.07 L986.58,102.63 L1039.88,72.07 L1039.7,133.5 Z" id="Shape" fill="#FFFFFF"></path>
                    <path d="M929.32,133.18 L929.33,130.89 L929.33,133.18 L929.32,133.18 L929.32,133.18 Z" id="Shape" fill="#2CA5E0"></path>
                    <path d="M929.51,71.74 L929.33,130.89 L929.5,71.74 L929.51,71.74 L929.51,71.74 Z" id="Shape" fill="#2CA5E0"></path>
                    <path d="M927.55,66 L927.55,66 L891.18,44.88 L881.18,39.05 L874.46,35.14 L870.46,32.84 L868.46,33.98 L811.21,66.81 L811.01,135.13 L870.06,169.44 L927.33,136.61 L929.33,135.47 L929.33,130.9 L929.51,71.75 L929.51,67.16 L927.55,66 Z M868.47,38.55 L870.47,37.41 L872.47,38.56 L923.6,68.29 L872.3,97.72 L870.3,98.86 L868.3,97.71 L817.16,68 L868.47,38.55 Z M868.1,163.72 L815,132.84 L815.18,71.41 L868.3,102.27 L868.1,163.72 Z M872.1,163.72 L872.27,104.58 L872.27,102.27 L874.27,101.14 L925.59,71.72 L925.42,130.87 L925.42,133.15 L923.42,134.29 L872.1,163.72 Z" id="Shape" fill="#FFFFFF"></path>
                </g>
            </g>
        </g>
    </g>
</svg>